<?xml version="1.0" encoding="iso-8859-1"?> <!-- Generator: Adobe Illustrator 16.0.0, SVG Export Plug-In . SVG Version: 6.00 Build 0)  --> <!DOCTYPE svg PUBLIC "-//W3C//DTD SVG 1.1//EN" "http://www.w3.org/Graphics/SVG/1.1/DTD/svg11.dtd"> <svg version="1.1" id="Capa_1" xmlns="http://www.w3.org/2000/svg" xmlns:xlink="http://www.w3.org/1999/xlink" x="0px" y="0px" width="54.816px" height="54.816px" viewBox="0 0 54.816 54.816" style="enable-background:new 0 0 54.816 54.816;" xml:space="preserve"> <g> <g> <path d="M48.19,31.889c0-2.863-2.344-5.453-6.124-7.324c0.092,1.926,0.246,4.054,0.494,6.449l0.021,0.219l-0.094,0.198 c-0.098,0.203-2.545,5.015-15.217,5.015c-0.432,0-0.781-0.35-0.781-0.781c0-0.022,0.012-0.043,0.014-0.064 c0.034-0.396,0.353-0.709,0.756-0.715c0.004,0,0.008-0.002,0.012-0.002c0.571,0,1.111-0.014,1.638-0.032 c8.892-0.322,11.548-3.227,12.069-3.945c-0.267-2.635-0.428-4.969-0.511-7.05c-0.362-9.194,0.838-13.372,1.546-15.831 c0.627-2.173,0.723-2.507-0.781-4.013c-2.862-2.861-9.015-3.682-12.32-3.917c-0.55-0.04-1.019-0.062-1.382-0.076 C27.054,0.002,26.761,0.001,26.713,0v0.005c-3.627-0.031-10.78,0.331-13.904,3.455c-3.843,3.843,1.31,2.876,0.512,20.847 c-4.109,1.89-6.695,4.583-6.695,7.582c0,5.706,9.305,10.332,20.783,10.332C38.885,42.222,48.19,37.595,48.19,31.889z M13.909,7.652c0.183-0.391,0.647-0.56,1.04-0.375c0.028,0.013,0.691,0.316,1.832,0.707c2.071,0.71,5.727,1.708,10.083,1.807 c0.666,0.014,1.35,0.008,2.045-0.024c2.704-0.124,5.605-0.636,8.519-1.782c0.548-0.215,1.093-0.444,1.638-0.705 c0.389-0.19,0.855-0.022,1.042,0.368c0.186,0.39,0.021,0.855-0.368,1.042c-3.717,1.78-7.435,2.521-10.832,2.679 c-0.485,0.023-0.963,0.034-1.434,0.034c-0.199,0-0.391-0.008-0.585-0.013c-7.017-0.131-12.27-2.54-12.606-2.698 C13.894,8.507,13.726,8.043,13.909,7.652z"/> <path d="M11.902,46.671c-0.021,0.179-0.031,0.352-0.038,0.521c-0.621,0.188-1.169,0.724-1.156,1.537 c0.031,1.944,0.848,3.24,2.138,3.792c0.96,2.314,3.209,2.919,5.703,1.626c1.497-0.776,2.839-1.805,4.198-2.794 c0.469-0.342,1.979-1.668,3.005-2.053c0.148-0.013,0.291-0.048,0.426-0.103c0.065-0.004,0.12,0.011,0.177,0.021 c0.198,0.094,0.418,0.141,0.654,0.133c0.235,0.008,0.456-0.039,0.653-0.133c0.059-0.009,0.112-0.024,0.179-0.021 c0.135,0.055,0.277,0.09,0.426,0.103c1.025,0.385,2.536,1.711,3.005,2.053c1.359,0.99,2.701,2.018,4.197,2.794 c2.494,1.293,4.743,0.688,5.704-1.626c1.288-0.552,2.106-1.848,2.137-3.792c0.015-0.813-0.534-1.349-1.155-1.537 c-0.006-0.169-0.018-0.342-0.039-0.521c-0.215-1.845-3.135-1.865-2.917,0c0.179,1.526-0.049,1.943-1.626,1.611 c-1.519-0.319-2.977-0.84-4.449-1.324c-1.861-0.612-4.228-1.521-6.115-0.702c-1.888-0.819-4.254,0.09-6.116,0.702 c-1.471,0.484-2.929,1.005-4.449,1.324c-1.576,0.332-1.805-0.085-1.626-1.611C15.04,44.806,12.119,44.827,11.902,46.671z"/> </g> </g> <g> </g> <g> </g> <g> </g> <g> </g> <g> </g> <g> </g> <g> </g> <g> </g> <g> </g> <g> </g> <g> </g> <g> </g> <g> </g> <g> </g> <g> </g> </svg>
