<?xml version="1.0" encoding="UTF-8"?> <svg width="54.816px" height="54.816px" enable-background="new 0 0 54.816 54.816" version="1.1" viewBox="0 0 54.816 54.816" xml:space="preserve" xmlns="http://www.w3.org/2000/svg" xmlns:cc="http://creativecommons.org/ns#" xmlns:dc="http://purl.org/dc/elements/1.1/" xmlns:rdf="http://www.w3.org/1999/02/22-rdf-syntax-ns#"><metadata><rdf:RDF><cc:Work rdf:about=""><dc:format>image/svg+xml</dc:format><dc:type rdf:resource="http://purl.org/dc/dcmitype/StillImage"/><dc:title/></cc:Work></rdf:RDF></metadata> <path fill="#fff" d="m48.19 31.889c0-2.863-2.344-5.453-6.124-7.324 0.092 1.926 0.246 4.054 0.494 6.449l0.021 0.219-0.094 0.198c-0.098 0.203-2.545 5.015-15.217 5.015-0.432 0-0.781-0.35-0.781-0.781 0-0.022 0.012-0.043 0.014-0.064 0.034-0.396 0.353-0.709 0.756-0.715 4e-3 0 8e-3 -2e-3 0.012-2e-3 0.571 0 1.111-0.014 1.638-0.032 8.892-0.322 11.548-3.227 12.069-3.945-0.267-2.635-0.428-4.969-0.511-7.05-0.362-9.194 0.838-13.372 1.546-15.831 0.627-2.173 0.723-2.507-0.781-4.013-2.862-2.861-9.015-3.682-12.32-3.917-0.55-0.04-1.019-0.062-1.382-0.076-0.476-0.018-0.769-0.019-0.817-0.02v5e-3c-3.627-0.031-10.78 0.331-13.904 3.455-3.843 3.843 1.31 2.876 0.512 20.847-4.109 1.89-6.695 4.583-6.695 7.582 0 5.706 9.305 10.332 20.783 10.332 11.476 1e-3 20.781-4.626 20.781-10.332zm-34.281-24.237c0.183-0.391 0.647-0.56 1.04-0.375 0.028 0.013 0.691 0.316 1.832 0.707 2.071 0.71 5.727 1.708 10.083 1.807 0.666 0.014 1.35 8e-3 2.045-0.024 2.704-0.124 5.605-0.636 8.519-1.782 0.548-0.215 1.093-0.444 1.638-0.705 0.389-0.19 0.855-0.022 1.042 0.368 0.186 0.39 0.021 0.855-0.368 1.042-3.717 1.78-7.435 2.521-10.832 2.679-0.485 0.023-0.963 0.034-1.434 0.034-0.199 0-0.391-8e-3 -0.585-0.013-7.017-0.131-12.27-2.54-12.606-2.698-0.389-0.185-0.557-0.649-0.374-1.04z"/> <path fill="#fff" d="m11.902 46.671c-0.021 0.179-0.031 0.352-0.038 0.521-0.621 0.188-1.169 0.724-1.156 1.537 0.031 1.944 0.848 3.24 2.138 3.792 0.96 2.314 3.209 2.919 5.703 1.626 1.497-0.776 2.839-1.805 4.198-2.794 0.469-0.342 1.979-1.668 3.005-2.053 0.148-0.013 0.291-0.048 0.426-0.103 0.065-4e-3 0.12 0.011 0.177 0.021 0.198 0.094 0.418 0.141 0.654 0.133 0.235 8e-3 0.456-0.039 0.653-0.133 0.059-9e-3 0.112-0.024 0.179-0.021 0.135 0.055 0.277 0.09 0.426 0.103 1.025 0.385 2.536 1.711 3.005 2.053 1.359 0.99 2.701 2.018 4.197 2.794 2.494 1.293 4.743 0.688 5.704-1.626 1.288-0.552 2.106-1.848 2.137-3.792 0.015-0.813-0.534-1.349-1.155-1.537-6e-3 -0.169-0.018-0.342-0.039-0.521-0.215-1.845-3.135-1.865-2.917 0 0.179 1.526-0.049 1.943-1.626 1.611-1.519-0.319-2.977-0.84-4.449-1.324-1.861-0.612-4.228-1.521-6.115-0.702-1.888-0.819-4.254 0.09-6.116 0.702-1.471 0.484-2.929 1.005-4.449 1.324-1.576 0.332-1.805-0.085-1.626-1.611 0.222-1.865-2.699-1.844-2.916 0z"/> </svg>
